HIERARCHY
ROOT Hips
{
	OFFSET 0.000000 93.594000 0.000000
	CHANNELS 6 Xposition Yposition Zposition Yrotation Xrotation Zrotation
	JOINT RightUpLeg
	{
		OFFSET -9.500000 -1.594000 0.000000
		CHANNELS 3 Yrotation Xrotation Zrotation
		JOINT RightLeg
		{
			OFFSET 0.000000 -42.000000 0.000000
			CHANNELS 3 Yrotation Xrotation Zrotation
			JOINT RightFoot
			{
				OFFSET 0.000000 -42.000000 0.000000
				CHANNELS 3 Yrotation Xrotation Zrotation
				End Site
				{
					OFFSET 0.000000 -8.000000 17.500000
				}
			}
		}
	}
	JOINT LeftUpLeg
	{
		OFFSET 9.500000 -1.594000 0.000000
		CHANNELS 3 Yrotation Xrotation Zrotation
		JOINT LeftLeg
		{
			OFFSET 0.000000 -42.000000 0.000000
			CHANNELS 3 Yrotation Xrotation Zrotation
			JOINT LeftFoot
			{
				OFFSET 0.000000 -42.000000 0.000000
				CHANNELS 3 Yrotation Xrotation Zrotation
				End Site
				{
					OFFSET 0.000000 -8.000000 17.500000
				}
			}
		}
	}
	JOINT Spine
	{
		OFFSET 0.000000 14.348000 0.000000
		CHANNELS 3 Yrotation Xrotation Zrotation
		JOINT Spine1
		{
			OFFSET 0.000000 9.746000 0.000000
			CHANNELS 3 Yrotation Xrotation Zrotation
			JOINT Spine2
			{
				OFFSET 0.000000 10.149000 0.000000
				CHANNELS 3 Yrotation Xrotation Zrotation
				JOINT Spine3
				{
					OFFSET 0.000000 9.746000 0.000000
					CHANNELS 3 Yrotation Xrotation Zrotation
					JOINT Neck
					{
						OFFSET 0.000000 10.417000 0.000000
						CHANNELS 3 Yrotation Xrotation Zrotation
						JOINT Head
						{
							OFFSET 0.000000 9.000000 0.000000
							CHANNELS 3 Yrotation Xrotation Zrotation
							End Site
							{
								OFFSET 0.000000 16.000000 0.000000
							}
						}
					}
					JOINT RightShoulder
					{
						OFFSET -3.200000 6.945000 0.000000
						CHANNELS 3 Yrotation Xrotation Zrotation
						JOINT RightArm
						{
							OFFSET -12.800000 0.000000 0.000000
							CHANNELS 3 Yrotation Xrotation Zrotation
							JOINT RightForeArm
							{
								OFFSET -27.000000 0.000000 0.000000
								CHANNELS 3 Yrotation Xrotation Zrotation
								JOINT RightHand
								{
									OFFSET -26.000000 0.000000 0.000000
									CHANNELS 3 Yrotation Xrotation Zrotation
									End Site
									{
										OFFSET -3.479000 0.532000 0.778000
									}
								}
							}
						}
					}
					JOINT LeftShoulder
					{
						OFFSET 3.200000 6.945000 0.000000
						CHANNELS 3 Yrotation Xrotation Zrotation
						JOINT LeftArm
						{
							OFFSET 12.800000 0.000000 0.000000
							CHANNELS 3 Yrotation Xrotation Zrotation
							JOINT LeftForeArm
							{
								OFFSET 27.000000 0.000000 0.000000
								CHANNELS 3 Yrotation Xrotation Zrotation
								JOINT LeftHand
								{
									OFFSET 26.000000 0.000000 0.000000
									CHANNELS 3 Yrotation Xrotation Zrotation
									End Site
									{
										OFFSET 3.479000 0.532000 0.778000
									}
								}
							}
						}
					}
				}
			}
		}
	}
}
MOTION
Frames: 10
Frame Time: 0.041667
-2.01 92.25 -3.3 -110.06 30.6 5.08 -5.28 -53.55 -8.15 -0.0 24.9 0.0 -2.3 -2.72 7.46 0.7 -44.68 -0.47 0.0 26.15 -0.0 -4.96 -16.46 -0.55 17.22 13.04 9.76 4.47 2.51 1.96 7.34 3.21 3.33 -1.41 -0.49 -0.24 -1.43 -0.51 -0.23 -25.88 -14.46 -1.33 3.72 -3.8 -3.09 18.06 -33.7 40.97 18.86 24.52 -25.7 8.54 9.42 -69.2 -4.34 -7.9 -13.72 -23.85 11.7 -78.84 -32.29 3.39 4.11 -9.57 -22.17 11.19
-2.0 92.25 -3.29 -110.0 30.51 5.1 -5.27 -53.46 -8.2 0.0 24.88 0.0 -2.37 -2.68 7.43 0.63 -44.63 -0.47 0.0 26.15 0.0 -4.96 -16.35 -0.55 17.18 13.08 9.78 4.46 2.52 1.97 7.33 3.22 3.34 -1.41 -0.49 -0.24 -1.43 -0.52 -0.23 -25.86 -14.52 -1.31 3.87 -3.86 -3.22 18.0 -33.69 40.94 18.67 24.27 -25.56 8.68 9.35 -69.2 -4.26 -8.03 -13.82 -23.98 11.71 -78.89 -32.25 3.38 4.11 -9.64 -22.13 11.29
-1.99 92.27 -3.25 -110.0 30.51 5.1 -5.27 -53.37 -8.21 0.0 24.67 0.0 -2.37 -2.57 7.45 0.49 -44.51 -0.39 -0.0 25.93 0.0 -5.03 -16.54 -0.85 16.73 13.23 10.07 4.35 2.56 2.05 7.17 3.28 3.47 -1.38 -0.5 -0.26 -1.4 -0.52 -0.26 -25.09 -14.82 -1.86 2.14 -3.7 -2.31 21.34 -33.46 39.26 19.4 26.33 -26.61 7.74 10.0 -67.54 -3.52 -8.1 -14.46 -23.23 13.04 -78.18 -32.52 3.24 4.09 -8.72 -22.3 9.61
-1.98 92.28 -3.21 -110.0 30.51 5.1 -5.25 -53.34 -8.24 -0.0 24.58 -0.0 -2.38 -2.5 7.47 0.51 -44.54 -0.42 -0.0 25.97 -0.0 -5.04 -16.55 -0.82 16.73 13.23 10.07 4.35 2.56 2.05 7.17 3.28 3.47 -1.38 -0.5 -0.26 -1.4 -0.52 -0.26 -25.09 -14.82 -1.86 2.14 -3.7 -2.3 21.34 -33.46 39.26 19.4 26.3 -26.61 7.75 9.99 -67.55 -3.52 -8.1 -14.46 -23.22 13.04 -78.17 -32.52 3.24 4.09 -8.72 -22.29 9.62
-1.99 92.32 -3.18 -110.0 30.51 5.1 -6.38 -53.3 -7.5 -0.0 24.38 -0.0 -1.38 -2.77 7.48 0.58 -44.45 -0.48 -0.0 25.77 -0.0 -5.09 -16.44 -0.8 16.73 13.23 10.07 4.36 2.56 2.05 7.17 3.28 3.47 -1.41 -0.49 -0.25 -1.43 -0.52 -0.25 -25.77 -14.71 -1.58 2.16 -3.71 -2.31 20.3 -33.72 40.35 19.82 27.15 -26.84 7.7 9.96 -67.63 -4.55 -7.34 -13.44 -22.48 11.78 -78.61 -32.51 3.24 4.1 -8.72 -22.26 9.62
-1.98 92.33 -3.16 -110.0 30.51 5.1 -6.37 -53.31 -7.53 0.0 24.38 -0.0 -1.39 -2.76 7.5 0.59 -44.43 -0.5 -0.0 25.73 -0.0 -5.1 -16.43 -0.78 16.73 13.23 10.06 4.36 2.56 2.05 7.17 3.28 3.46 -1.41 -0.49 -0.25 -1.43 -0.52 -0.25 -25.77 -14.7 -1.56 2.16 -3.72 -2.3 20.3 -33.71 40.36 19.83 27.11 -26.85 7.68 9.97 -67.65 -4.54 -7.35 -13.43 -22.47 11.79 -78.6 -32.51 3.23 4.09 -8.72 -22.24 9.61
-1.97 92.32 -3.12 -111.11 31.15 4.64 -5.33 -53.65 -7.58 0.0 23.71 -0.0 -1.41 -2.31 7.5 1.73 -45.11 -0.7 -0.0 26.15 0.0 -5.11 -16.71 -0.73 17.33 13.02 9.84 4.51 2.49 1.98 7.39 3.16 3.36 -1.41 -0.49 -0.25 -1.43 -0.52 -0.25 -25.75 -14.69 -1.55 2.16 -3.72 -2.3 20.28 -33.71 40.38 19.84 27.12 -26.86 7.6 9.96 -67.69 -4.56 -7.34 -13.43 -22.45 11.79 -78.59 -32.5 3.24 4.09 -8.73 -22.21 9.6
-1.94 92.32 -3.09 -111.13 31.15 4.63 -5.31 -53.66 -7.6 0.0 23.66 0.0 -1.41 -2.26 7.52 1.76 -45.15 -0.72 0.0 26.18 0.0 -5.12 -16.7 -0.72 17.34 13.02 9.84 4.51 2.49 1.98 7.39 3.16 3.35 -1.41 -0.49 -0.25 -1.43 -0.52 -0.25 -25.75 -14.69 -1.55 2.17 -3.72 -2.29 20.28 -33.71 40.39 19.85 27.12 -26.87 7.59 9.89 -67.72 -4.56 -7.33 -13.43 -22.44 11.8 -78.57 -32.51 3.24 4.09 -8.72 -22.2 9.6
-1.92 92.32 -3.06 -111.2 31.19 4.59 -5.26 -53.68 -7.59 0.0 23.57 0.0 -1.42 -2.2 7.54 1.82 -45.23 -0.72 -0.0 26.24 -0.0 -5.13 -16.71 -0.7 17.38 13.01 9.82 4.52 2.48 1.97 7.41 3.15 3.35 -1.41 -0.49 -0.25 -1.43 -0.52 -0.25 -25.75 -14.7 -1.54 2.16 -3.72 -2.28 20.28 -33.71 40.39 19.88 27.08 -26.86 7.58 9.9 -67.72 -4.58 -7.33 -13.43 -22.43 11.8 -78.55 -32.5 3.24 4.09 -8.73 -22.19 9.6
-1.91 92.32 -3.04 -111.22 31.2 4.59 -5.2 -53.69 -7.63 -0.0 23.54 -0.0 -1.44 -2.15 7.55 1.86 -45.26 -0.76 -0.0 26.25 0.0 -5.14 -16.71 -0.68 17.39 13.01 9.81 4.52 2.48 1.97 7.41 3.15 3.34 -1.41 -0.49 -0.25 -1.43 -0.52 -0.25 -25.75 -14.71 -1.55 2.15 -3.7 -2.29 20.29 -33.71 40.39 19.91 27.03 -26.85 7.59 9.93 -67.72 -4.6 -7.32 -13.43 -22.43 11.8 -78.54 -32.5 3.25 4.09 -8.73 -22.18 9.61
